<?xml version="1.0" encoding="iso-8859-1"?>
<!-- Uploaded to: SVG Repo, www.svgrepo.com, Generator: SVG Repo Mixer Tools -->
<svg fill="#000000" height="800px" width="800px" version="1.1" id="Layer_1" xmlns="http://www.w3.org/2000/svg" xmlns:xlink="http://www.w3.org/1999/xlink" 
	 viewBox="0 0 508.031 508.031" xml:space="preserve">
<g>
	<g>
		<path d="M503.863,4.13c-3.1-3.1-7.6-4.6-11.9-4l-158.1,22.3c-3,0.4-5.8,1.8-8,4l-108.7,108.7h-203c-5.7,0-10.9,3.4-13,8.7
			c-2.2,5.3-1,11.3,3.1,15.4l94.4,94.4l-8.7,8.7c-2.6,2.6-9.5,10.4,0,19.9l135.8,135.7c8.7,8.7,17.3,2.6,20,0l8.7-8.7l94.4,94.4
			c5.6,5.6,10.9,4.9,15.4,3.1c5.2-2.2,8.6-7.4,8.6-13.1v-202.9l108.7-108.7c2.2-2.2,3.6-5,4-8l22.3-158
			C508.463,11.63,506.963,7.23,503.863,4.13z M48.263,163.33h140.7l-70.4,70.3L48.263,163.33z M344.663,459.63l-70.3-70.3l70.3-70.3
			V459.63z M458.363,165.53l-222.7,222.5l-115.8-115.8l222.6-222.5l134.9-19L458.363,165.53z"/>
	</g>
</g>
<g>
	<g>
		<path d="M74.763,341.33c-5.5-5.5-14.4-5.5-20,0l-50.6,50.6c-5.5,5.5-5.5,14.4,0,19.9c4.8,4.8,14.4,5.6,20,0l50.7-50.6
			C80.363,355.83,80.363,346.83,74.763,341.33z"/>
	</g>
</g>
<g>
	<g>
		<path d="M145.263,362.63c-5.5-5.5-14.4-5.5-20,0l-50.7,50.6c-5.5,5.5-5.5,14.4,0,19.9c4.8,4.8,14.4,5.6,20,0l50.7-50.6
			C150.763,377.03,150.763,368.13,145.263,362.63z"/>
	</g>
</g>
<g>
	<g>
		<path d="M166.563,433.03c-5.5-5.5-14.4-5.5-20,0l-50.7,50.6c-5.5,5.5-5.5,14.4,0,19.9c4.8,4.8,14.4,5.6,20,0l50.7-50.6
			C172.063,447.53,172.063,438.53,166.563,433.03z"/>
	</g>
</g>
<g>
	<g>
		<path d="M296.963,161.73c-27.2,0-49.4,22.1-49.4,49.4c0,27.2,22.2,49.4,49.4,49.4s49.4-22.1,49.4-49.4
			S324.163,161.73,296.963,161.73z M296.863,232.23c-11.7,0-21.2-9.5-21.2-21.2s9.5-21.2,21.2-21.2c11.7,0.1,21.2,9.6,21.2,21.2
			C318.063,222.73,308.563,232.23,296.863,232.23z"/>
	</g>
</g>
</svg>